<svg width="200" height="60" viewBox="0 0 200 60" fill="none" xmlns="http://www.w3.org/2000/svg">
  <!-- Background -->
  <rect width="200" height="60" rx="8" fill="#f8fafc"/>
  
  <!-- Hair strands design -->
  <path d="M20 15C25 10, 35 10, 40 15C45 20, 35 25, 30 20C25 15, 15 15, 20 15Z" fill="#2563eb" opacity="0.8"/>
  <path d="M22 20C27 15, 37 15, 42 20C47 25, 37 30, 32 25C27 20, 17 20, 22 20Z" fill="#7c3aed" opacity="0.6"/>
  <path d="M24 25C29 20, 39 20, 44 25C49 30, 39 35, 34 30C29 25, 19 25, 24 25Z" fill="#f59e0b" opacity="0.7"/>
  
  <!-- Company name -->
  <text x="60" y="25" font-family="Arial, sans-serif" font-size="16" font-weight="bold" fill="#2563eb">VESNA</text>
  <text x="60" y="42" font-family="Arial, sans-serif" font-size="12" font-weight="normal" fill="#6b7280">HAIR CLINIC</text>
  
  <!-- Small decorative element -->
  <circle cx="170" cy="30" r="3" fill="#f59e0b"/>
  <circle cx="180" cy="30" r="2" fill="#2563eb"/>
  <circle cx="188" cy="30" r="1.5" fill="#7c3aed"/>
</svg> 